<svg width="57" height="71" viewBox="0 0 57 71" fill="none" xmlns="http://www.w3.org/2000/svg">
<path d="M28.5001 0.083252C18.7357 0.083252 10.7917 8.02721 10.7917 17.7916V28.4166H7.25008C5.37146 28.4166 3.56979 29.1629 2.24141 30.4912C0.913025 31.8196 0.166748 33.6213 0.166748 35.4999V63.8333C0.166748 65.7119 0.913025 67.5135 2.24141 68.8419C3.56979 70.1703 5.37146 70.9166 7.25008 70.9166H49.7501C51.6287 70.9166 53.4304 70.1703 54.7587 68.8419C56.0871 67.5135 56.8334 65.7119 56.8334 63.8333V35.4999C56.8334 33.6213 56.0871 31.8196 54.7587 30.4912C53.4304 29.1629 51.6287 28.4166 49.7501 28.4166H46.2084V17.7916C46.2084 8.02721 38.2645 0.083252 28.5001 0.083252ZM17.8751 17.7916C17.8751 11.9337 22.6422 7.16659 28.5001 7.16659C34.358 7.16659 39.1251 11.9337 39.1251 17.7916V28.4166H17.8751V17.7916ZM32.0417 55.7689V63.8333H24.9584V55.7689C23.7202 55.0598 22.7259 53.9921 22.1068 52.7066C21.4876 51.4211 21.2725 49.9781 21.49 48.5679C21.7075 47.1577 22.3472 45.8465 23.3249 44.8072C24.3025 43.7679 25.5722 43.0493 26.9665 42.7462C28.0022 42.5172 29.076 42.5236 30.1089 42.7649C31.1417 43.0062 32.1072 43.4763 32.9342 44.1404C33.7612 44.8046 34.4285 45.6459 34.887 46.6023C35.3455 47.5588 35.5835 48.6059 35.5834 49.6666C35.5814 50.9053 35.2529 52.1215 34.6312 53.1928C34.0094 54.2641 33.1163 55.1527 32.0417 55.7689Z" fill="#404040"/>
</svg>
