<svg width="63" height="77" viewBox="0 0 63 77" fill="none" xmlns="http://www.w3.org/2000/svg">
<path d="M60.9595 10.103L32.7534 0.490723C32.4131 0.374512 31.9565 0.316406 31.5 0.316406C31.0435 0.316406 30.5869 0.374512 30.2466 0.490723L2.04053 10.103C1.35156 10.3354 0.787109 11.1323 0.787109 11.8628V51.9058C0.787109 52.6362 1.26025 53.5991 1.83301 54.0557L30.4458 76.3516C30.7363 76.5757 31.1099 76.6919 31.4917 76.6919C31.8735 76.6919 32.2554 76.5757 32.5376 76.3516L61.1504 54.0557C61.7231 53.6074 62.1963 52.6445 62.1963 51.9058V11.8628C62.2129 11.1323 61.6484 10.3437 60.9595 10.103V10.103ZM46.6489 24.2808L29.0015 48.5772C28.8774 48.747 28.715 48.8851 28.5275 48.9803C28.34 49.0755 28.1327 49.1252 27.9224 49.1252C27.7121 49.1252 27.5047 49.0755 27.3172 48.9803C27.1297 48.8851 26.9673 48.747 26.8433 48.5772L16.3511 34.1338C16.0356 33.6938 16.3511 33.0796 16.8906 33.0796H21.4727C21.896 33.0796 22.3027 33.2871 22.5518 33.6274L27.9224 41.0151L40.4482 23.7661C40.6973 23.4258 41.0957 23.2183 41.5273 23.2183H46.1094C46.6489 23.2266 46.9644 23.8408 46.6489 24.2808V24.2808Z" fill="#404040"/>
</svg>
