<svg width="71" height="71" viewBox="0 0 71 71" fill="none" xmlns="http://www.w3.org/2000/svg">
<path d="M35.4999 7.16659C51.1187 7.16659 63.8333 19.8812 63.8333 35.4999C63.8333 51.1187 51.1187 63.8333 35.4999 63.8333C19.8812 63.8333 7.16659 51.1187 7.16659 35.4999C7.16659 19.8812 19.8812 7.16659 35.4999 7.16659ZM35.4999 0.083252C15.9393 0.083252 0.083252 15.9393 0.083252 35.4999C0.083252 55.0606 15.9393 70.9166 35.4999 70.9166C55.0605 70.9166 70.9166 55.0606 70.9166 35.4999C70.9166 15.9393 55.0605 0.083252 35.4999 0.083252ZM48.9583 47.5416L39.0416 34.3205V17.7916H31.9583V36.6793L43.2916 51.7881L48.9583 47.5381V47.5416Z" fill="#404040"/>
</svg>
