<svg width="65" height="65" viewBox="0 0 65 65" fill="none" xmlns="http://www.w3.org/2000/svg">
<path d="M63.4749 63.4738C62.6805 64.269 61.7293 64.6666 60.6213 64.6666C59.5133 64.6666 58.5621 64.269 57.7677 63.4738L45.3497 51.0437C40.3324 54.7685 34.7296 56.6309 28.5416 56.6309C24.7367 56.6309 21.0991 55.8881 17.6288 54.4023C14.1585 52.9165 11.1689 50.9181 8.66026 48.407C6.15158 45.8958 4.15509 42.9139 2.67079 39.4611C1.18649 36.0083 0.444336 32.3671 0.444336 28.5376C0.444336 24.7082 1.18649 21.0565 2.67079 17.5828C4.15509 14.1091 6.15158 11.1271 8.66026 8.63691C11.1689 6.1467 14.1585 4.15872 17.6288 2.67297C21.0991 1.18721 24.7367 0.444336 28.5416 0.444336C32.3464 0.444336 35.984 1.18721 39.4543 2.67297C42.9247 4.15872 45.9142 6.1467 48.4229 8.63691C50.9315 11.1271 52.928 14.1091 54.4123 17.5828C55.8966 21.0565 56.6388 24.6977 56.6388 28.5062C56.6388 34.7422 54.7782 40.3504 51.057 45.3308L63.4749 57.7609C64.2693 58.5561 64.6666 59.5083 64.6666 60.6174C64.6666 61.7264 64.2693 62.6786 63.4749 63.4738ZM28.5416 8.47996C24.904 8.47996 21.5486 9.36932 18.4755 11.148C15.4023 12.9268 12.9668 15.3646 11.1689 18.4617C9.37106 21.5588 8.47211 24.9174 8.47211 28.5376C8.47211 32.1578 9.37106 35.5165 11.1689 38.6136C12.9668 41.7106 15.4023 44.1485 18.4755 45.9272C21.5486 47.7059 24.904 48.5953 28.5416 48.5953C32.1791 48.5953 35.5345 47.7059 38.6076 45.9272C41.6808 44.1485 44.1163 41.7106 45.9142 38.6136C47.7121 35.5165 48.611 32.1578 48.611 28.5376C48.611 24.9174 47.7121 21.5588 45.9142 18.4617C44.1163 15.3646 41.6808 12.9268 38.6076 11.148C35.5345 9.36932 32.1791 8.47996 28.5416 8.47996Z" fill="#404040"/>
</svg>
