<svg width="110" height="110" viewBox="0 0 110 110" fill="none" xmlns="http://www.w3.org/2000/svg">
<circle cx="55" cy="55" r="55" fill="#F2F2F2"/>
<g clip-path="url(#clip0)">
<path d="M33.1768 64.5622C28.9475 60.0453 26.3401 53.9714 26.3401 47.2879C26.3409 33.3207 37.6476 22.0008 51.6 22C65.5547 22.0008 76.8605 33.3207 76.8605 47.2888C76.8605 48.1033 76.8129 48.9043 76.7387 49.6937C77.6141 51.468 78.802 53.8214 79.7987 55.7895C80.3247 56.8266 80.7953 57.7553 81.1399 58.4312C81.3118 58.7697 81.4509 59.0448 81.5502 59.2402C81.5995 59.338 81.6386 59.4154 81.6666 59.4715L81.7018 59.5403L81.7331 59.6058L81.7377 59.6137C81.9746 60.1436 82.1028 60.7313 82.1028 61.3395C82.102 63.6735 80.2144 65.568 77.8807 65.5696H75.9922L76.0094 73.112L76.0101 73.1144C76.0086 76.1086 73.5841 78.5371 70.5897 78.5379L62.6595 78.5348L59.9599 87.6045C59.8715 87.9047 59.6676 88.1547 59.3916 88.3032C59.1149 88.4509 58.7944 88.4829 58.4958 88.3922L29.8166 79.6695C29.1968 79.4812 28.8473 78.827 29.035 78.2071L33.1768 64.5622ZM58.0482 85.8052L60.6612 77.0271C60.8096 76.5284 61.2645 76.1885 61.7851 76.1892L70.5906 76.1931C71.4426 76.1921 72.203 75.8506 72.7634 75.2918C73.3215 74.7305 73.6631 73.9685 73.6637 73.1142L73.6645 73.1166L73.6435 64.3993C73.6435 64.0867 73.7647 63.7904 73.986 63.5684C74.2072 63.3463 74.5034 63.2237 74.8169 63.2237H77.8805C78.9138 63.2221 79.7565 62.3797 79.7579 61.3385C79.7579 61.0595 79.7001 60.8055 79.5986 60.5749C79.5751 60.5273 79.5142 60.4061 79.4251 60.2326C78.685 58.7733 76.0314 53.5662 74.4909 50.4368C74.3932 50.2367 74.3534 50.0148 74.3767 49.7935C74.4657 48.9674 74.515 48.1312 74.515 47.2869C74.515 40.9465 71.9522 35.2173 67.8042 31.0623C63.6531 26.9089 57.9318 24.3437 51.6 24.3429C45.2682 24.3437 39.5476 26.9081 35.3974 31.0623C31.2478 35.2173 28.6858 40.9465 28.685 47.2869C28.6859 53.5882 31.2243 59.2766 35.3294 63.4261C35.6327 63.7318 35.7429 64.1796 35.6179 64.5915L31.6191 77.7654L58.0482 85.8052Z" fill="#404040"/>
<path d="M44.5343 35.1982C46.4226 33.3598 49.0597 32.1538 52.0196 32.1538C54.9804 32.1538 57.6168 33.3591 59.505 35.1982C61.3934 37.0374 62.5689 39.5283 62.572 42.1553C62.5751 43.838 62.2031 45.1965 61.6287 46.279C60.7643 47.9055 59.5294 48.8741 58.693 49.7134C58.2685 50.1316 57.9419 50.5098 57.7332 50.8835C57.5261 51.261 57.4105 51.6291 57.4057 52.1714V58.3375C57.401 60.0648 56.0074 61.4592 54.2792 61.464H49.8578C48.1305 61.4593 46.7361 60.0649 46.7322 58.3375L46.7243 52.173C46.7228 51.8111 46.6664 51.5305 46.5711 51.2702C46.4053 50.8208 46.0927 50.4027 45.6237 49.9259C44.9305 49.2099 43.9049 48.4244 43.0195 47.2223C42.1308 46.0218 41.4579 44.3687 41.4679 42.1553C41.4712 39.5275 42.646 37.0365 44.5343 35.1982ZM49.076 58.336C49.0771 58.5515 49.1614 58.7407 49.3075 58.8885C49.4544 59.0339 49.6437 59.1184 49.8578 59.1191H54.2792C54.4933 59.1191 54.6841 59.0339 54.8302 58.8885C54.9756 58.7416 55.0608 58.5516 55.0608 58.3375V55.6019H49.0731L49.076 58.336ZM44.4945 45.1761C45.0923 46.3001 46.0546 47.0817 47.0511 48.0383C47.5434 48.5182 48.0414 49.049 48.4307 49.7297C48.8216 50.4064 49.0732 51.2389 49.0699 52.1714L49.0715 53.2571H55.0617V52.1714C55.0608 51.5523 55.1665 50.9764 55.3549 50.4621C55.6848 49.5569 56.2436 48.8707 56.8025 48.2908C57.6513 47.4209 58.5198 46.7267 59.1441 45.8474C59.7647 44.9674 60.2172 43.9333 60.2273 42.1552C60.2304 40.2432 59.3534 38.3198 57.8708 36.8785C56.3888 35.4379 54.3363 34.4985 52.0204 34.4985C49.7053 34.4985 47.6521 35.4379 46.1701 36.8785C44.6881 38.3198 43.8112 40.2432 43.8142 42.1552C43.8159 43.5066 44.0941 44.4256 44.4945 45.1761Z" fill="#404040"/>
</g>
<defs>
<clipPath id="clip0">
<path d="M21 22H87.443V88.443H21V22Z" fill="white"/>
</clipPath>
</defs>
</svg>
