<svg width="110" height="110" viewBox="0 0 110 110" fill="none" xmlns="http://www.w3.org/2000/svg">
<circle cx="55" cy="55" r="55" fill="#F2F2F2"/>
<g clip-path="url(#clip0)">
<path d="M65.8294 49.3006C63.1764 49.3006 60.8928 47.4265 60.3752 44.824C59.8577 42.2222 61.2501 39.6165 63.7016 38.6015C66.1525 37.5864 68.9798 38.444 70.4537 40.6499C71.9276 42.8565 71.6376 45.7962 69.7613 47.672C68.7207 48.7185 67.3049 49.3044 65.8294 49.3006ZM65.8294 40.4028C64.4804 40.4028 63.2639 41.2158 62.7474 42.4627C62.2309 43.7091 62.5166 45.1439 63.4702 46.0987C64.7905 47.3586 66.8683 47.3586 68.1885 46.0987C69.1427 45.1439 69.4278 43.7091 68.9113 42.4627C68.3949 41.2158 67.1789 40.4028 65.8294 40.4028Z" fill="#404040"/>
<path d="M57.6401 50.3581L54.4935 53.5036C54.2046 53.7827 54.0884 54.1966 54.1899 54.5854C54.292 54.9742 54.5956 55.2778 54.9844 55.3794C55.3733 55.4815 55.7871 55.3653 56.0663 55.0763L59.2129 51.9308C59.6343 51.4947 59.6283 50.8007 59.1993 50.3717C58.7702 49.9426 58.0762 49.9366 57.6401 50.3581Z" fill="#404040"/>
<path d="M87.4601 24.1717L87.3911 23.2077C87.3493 22.6603 86.9143 22.2247 86.3663 22.1829L85.4023 22.1096C73.2205 21.1641 61.3689 26.3538 53.8017 35.9467L49.198 41.7718C43.4913 38.1147 36.0072 38.9326 31.2248 43.7361C31.0146 43.9446 30.8962 44.2281 30.8962 44.5241C30.8962 44.8201 31.0135 45.1041 31.2237 45.3132L39.6974 53.7972L39.5774 53.9492C38.5276 55.2776 38.6384 57.1811 39.8353 58.378L39.8744 58.416L37.5164 60.773C35.3489 62.9469 35.3489 66.4645 37.5164 68.6384L40.9323 72.0544C43.1068 74.2207 46.6233 74.2207 48.7977 72.0544L51.1569 69.6942L51.1949 69.7316C52.3913 70.9297 54.2948 71.0415 55.6237 69.9923L55.7758 69.8707L64.2565 78.3459C64.4656 78.5545 64.748 78.6712 65.0429 78.6707C65.3383 78.6707 65.6218 78.5534 65.8303 78.3438C70.6328 73.5603 71.4501 66.0762 67.7936 60.369L73.6224 55.768C83.2127 48.2002 88.4018 36.3518 87.4601 24.1717ZM33.6214 44.5599C37.6375 41.1972 43.355 40.7806 47.8159 43.527L41.0887 52.0365L33.6214 44.5599ZM47.225 70.4751C45.9205 71.7758 43.8096 71.7758 42.5051 70.4751L39.0891 67.0602C37.789 65.7557 37.789 63.6448 39.0891 62.3398L41.4493 59.9823L49.5841 68.116L47.225 70.4751ZM67.8489 68.1247C67.8527 70.9856 66.847 73.7558 65.0097 75.9482L57.5343 68.4804L66.0427 61.7549C67.2271 63.6682 67.8527 65.8747 67.8489 68.1247ZM72.2435 54.0182L54.2465 68.2447C53.8044 68.5939 53.1706 68.5575 52.772 68.1594L41.4113 56.802C41.0105 56.4028 40.9731 55.7664 41.325 55.3232L55.5515 37.3261C58.2115 33.9645 61.4754 31.128 65.1754 28.9633L80.6173 44.3943C78.4488 48.0954 75.609 51.3587 72.2435 54.0182ZM81.7186 42.3501L67.2141 27.851C71.9872 25.4664 77.2491 24.2244 82.5849 24.2227C83.4625 24.2227 84.3455 24.2564 85.2275 24.3243L85.2421 24.3384C85.7184 30.5507 84.5003 36.7754 81.7186 42.3501Z" fill="#404040"/>
<path d="M46.1921 83.3988C45.7419 83.3988 45.3367 83.1278 45.1646 82.7124C44.9924 82.2969 45.0874 81.8185 45.4057 81.5002L50.1234 76.7814C50.56 76.36 51.2536 76.366 51.6826 76.795C52.1116 77.224 52.1176 77.9175 51.6962 78.3542L46.9784 83.073C46.7699 83.2815 46.487 83.3988 46.1921 83.3988Z" fill="#404040"/>
<path d="M55.0898 84.5111C54.6396 84.5111 54.2344 84.2401 54.0623 83.8247C53.8901 83.4092 53.9851 82.9308 54.3034 82.6125L59.0211 77.8937C59.4578 77.4723 60.1513 77.4783 60.5803 77.9073C61.0093 78.3363 61.0153 79.0298 60.5939 79.4665L55.8761 84.1853C55.6676 84.3938 55.3847 84.5111 55.0898 84.5111Z" fill="#404040"/>
<path d="M42.2592 87.3306C41.8095 87.3306 41.4039 87.0596 41.2317 86.6442C41.0595 86.2282 41.1546 85.7502 41.4728 85.432L42.2592 84.6456C42.5383 84.3567 42.9522 84.2405 43.341 84.3426C43.7299 84.4441 44.0334 84.7477 44.135 85.1366C44.2371 85.5254 44.1209 85.9392 43.832 86.2184L43.0456 87.0048C42.837 87.2133 42.5541 87.3306 42.2592 87.3306Z" fill="#404040"/>
<path d="M30.1027 80.1566C29.6525 80.1566 29.2474 79.8857 29.0752 79.4702C28.903 79.0547 28.9981 78.5763 29.3163 78.258L34.0341 73.5392C34.4707 73.1178 35.1642 73.1238 35.5932 73.5528C36.0223 73.9818 36.0282 74.6753 35.6068 75.112L30.8891 79.8308C30.6805 80.0393 30.3976 80.1566 30.1027 80.1566Z" fill="#404040"/>
<path d="M26.1698 84.0884C25.7202 84.0884 25.3145 83.8174 25.1423 83.402C24.9702 82.986 25.0652 82.508 25.3835 82.1898L26.1698 81.4034C26.449 81.1145 26.8628 80.9983 27.2517 81.1004C27.6405 81.2019 27.9441 81.5055 28.0456 81.8944C28.1477 82.2832 28.0315 82.697 27.7426 82.9762L26.9562 83.7626C26.7477 83.9711 26.4647 84.0884 26.1698 84.0884Z" fill="#404040"/>
<path d="M26.172 64.4911C25.7218 64.4911 25.3167 64.2201 25.1445 63.8047C24.9724 63.3892 25.0674 62.9108 25.3857 62.5925L30.1034 57.8737C30.54 57.4523 31.2335 57.4582 31.6626 57.8873C32.0916 58.3163 32.0976 59.0098 31.6761 59.4465L26.9584 64.1653C26.7499 64.3738 26.4669 64.4911 26.172 64.4911Z" fill="#404040"/>
<path d="M26.172 55.5932C25.7218 55.5932 25.3167 55.3222 25.1445 54.9067C24.9724 54.4913 25.0674 54.0128 25.3857 53.6946L30.1034 48.9758C30.54 48.5543 31.2335 48.5603 31.6626 48.9893C32.0916 49.4184 32.0976 50.1119 31.6761 50.5485L26.9584 55.2673C26.7499 55.4759 26.4669 55.5932 26.172 55.5932Z" fill="#404040"/>
<path d="M22.2389 68.4229C21.7893 68.4229 21.3836 68.1519 21.2114 67.7364C21.0393 67.3204 21.1343 66.8425 21.4526 66.5243L22.2389 65.7379C22.5181 65.449 22.9319 65.3328 23.3208 65.4349C23.7096 65.5364 24.0132 65.84 24.1147 66.2288C24.2168 66.6177 24.1006 67.0315 23.8117 67.3107L23.0253 68.097C22.8168 68.3056 22.5338 68.4229 22.2389 68.4229Z" fill="#404040"/>
</g>
<defs>
<clipPath id="clip0">
<path d="M21 22H87.443V88.443H21V22Z" fill="white"/>
</clipPath>
</defs>
</svg>
