<svg width="110" height="110" viewBox="0 0 110 110" fill="none" xmlns="http://www.w3.org/2000/svg">
<circle cx="55" cy="55" r="55" fill="#F2F2F2"/>
<g clip-path="url(#clip0)">
<path d="M54.2216 50.7919C58.4961 50.7919 61.9733 47.3136 61.9733 43.0403C61.9733 38.7669 58.4961 35.2886 54.2216 35.2886C49.9472 35.2886 46.47 38.7669 46.47 43.0403C46.47 47.3136 49.9472 50.7919 54.2216 50.7919ZM54.2216 37.5033C57.2747 37.5033 59.7586 39.9872 59.7586 43.0403C59.7586 46.0933 57.2747 48.5772 54.2216 48.5772C51.1686 48.5772 48.6847 46.0933 48.6847 43.0403C48.6847 39.9872 51.1686 37.5033 54.2216 37.5033Z" fill="#404040"/>
<path d="M54.0256 82.6369L71.014 58.1007C77.3859 49.6059 76.4645 35.643 69.0417 28.2213C65.0308 24.2092 59.6976 22 54.0256 22C48.3536 22 43.0205 24.2092 39.0095 28.2202C31.5867 35.6418 30.6654 49.6048 37.0118 58.0663L54.0256 82.6369ZM40.5754 29.786C44.1688 26.1937 48.945 24.2148 54.0256 24.2148C59.1063 24.2148 63.8824 26.1937 67.4759 29.786C74.1756 36.4846 75.0006 49.0954 69.2178 56.805L54.0256 78.7456L38.8091 56.7718C33.0507 49.0954 33.8768 36.4846 40.5754 29.786Z" fill="#404040"/>
<path d="M67.6396 69.6253C67.0306 69.5512 66.4813 69.9875 66.4104 70.5954C66.3396 71.2034 66.7737 71.7537 67.3805 71.8246C79.0257 73.1956 85.2282 76.8898 85.2282 79.0303C85.2282 82.0358 73.4323 86.2283 54.2215 86.2283C35.0106 86.2283 23.2148 82.0358 23.2148 79.0303C23.2148 76.8898 29.4172 73.1956 41.0625 71.8246C41.6693 71.7537 42.1034 71.2023 42.0325 70.5954C41.9605 69.9875 41.4113 69.5489 40.8033 69.6253C29.1437 70.9985 21 74.8655 21 79.0303C21 83.7079 32.4116 88.4431 54.2215 88.4431C76.0314 88.4431 87.443 83.7079 87.443 79.0303C87.443 74.8655 79.2993 70.9985 67.6396 69.6253Z" fill="#404040"/>
</g>
<defs>
<clipPath id="clip0">
<path d="M21 22H87.443V88.443H21V22Z" fill="white"/>
</clipPath>
</defs>
</svg>
