<svg width="110" height="110" viewBox="0 0 110 110" fill="none" xmlns="http://www.w3.org/2000/svg">
<circle cx="55" cy="55" r="55" fill="#F2F2F2"/>
<g clip-path="url(#clip0)">
<path d="M82.6515 86.5161L76.97 81.3504C77.9853 79.9093 78.584 78.1545 78.584 76.2617C78.584 71.377 74.6097 67.4026 69.7249 67.4026C69.0673 67.4026 68.427 67.4768 67.8098 67.6135L61.2836 64.0538C60.3423 63.5401 59.7588 62.5555 59.7588 61.4836V57.8204C60.4996 56.8492 62.6236 53.8216 63.6379 49.8052C64.6832 48.9658 65.2956 47.7089 65.2956 46.3624V41.9329C65.2956 40.8664 64.8969 39.8321 64.1882 39.026V33.1358C64.2503 32.5268 64.4928 28.9001 61.8716 25.909C59.5971 23.3145 55.9051 22 50.8997 22C45.8932 22 42.2012 23.3145 39.9277 25.9091C37.3043 28.9002 37.548 32.5268 37.6111 33.1359V39.026C36.9012 39.8321 36.5037 40.8664 36.5037 41.9329V46.3624C36.5037 47.709 37.1161 48.9658 38.1614 49.8052C39.1758 53.8216 41.2997 56.8493 42.0406 57.8204V61.4836C42.0406 62.5555 41.4558 63.54 40.5157 64.0538L30.6346 69.4423C27.4243 71.1943 25.4298 74.5551 25.4298 78.2128V82.9059C25.4298 83.5171 25.9248 84.0132 26.5371 84.0132H65.4422C66.7124 84.7179 68.1722 85.1205 69.7248 85.1205C71.9199 85.1205 73.9297 84.3161 75.479 82.9889L81.1608 88.1547C81.3734 88.3474 81.6403 88.4427 81.9061 88.4427C82.2062 88.4427 82.5074 88.3208 82.7256 88.0806C83.1364 87.6279 83.1032 86.928 82.6515 86.5161ZM27.6446 78.2129C27.6446 75.3659 29.1972 72.7502 31.6954 71.3871L41.5754 65.9974C43.2287 65.096 44.2554 63.3663 44.2554 61.4837V57.4363C44.2554 57.1783 44.1635 56.9258 43.9974 56.7264C43.9708 56.6944 41.251 53.3865 40.2212 48.9016C40.1569 48.6204 39.9852 48.3756 39.7439 48.2194C39.1016 47.8041 38.7184 47.1099 38.7184 46.3624V41.9329C38.7184 41.3117 38.982 40.7325 39.4603 40.3006C39.6929 40.0903 39.8257 39.7913 39.8257 39.4779V33.0738C39.8257 33.0251 39.8224 32.9775 39.8157 32.9287C39.8113 32.8977 39.4359 29.8303 41.5931 27.3697C43.4281 25.2756 46.5597 24.2148 50.8995 24.2148C55.2239 24.2148 58.3478 25.2691 60.1861 27.3476C62.3421 29.785 61.9867 32.9022 61.9834 32.9288C61.9768 32.9775 61.9734 33.0251 61.9734 33.0739V39.4779C61.9734 39.7913 62.1063 40.0903 62.3389 40.3006C62.8172 40.7325 63.0808 41.3117 63.0808 41.9329V46.3624C63.0808 47.1099 62.6976 47.8041 62.0553 48.2194C61.8128 48.3755 61.6423 48.6203 61.577 48.9016C60.5483 53.3865 57.8285 56.6942 57.8008 56.7264C57.6358 56.9258 57.5438 57.1783 57.5438 57.4363V61.4837C57.5438 63.3663 58.5703 65.096 60.2237 65.9974L65.1439 68.6818C62.5815 70.2362 60.8657 73.0523 60.8657 76.2617C60.8657 78.3554 61.5975 80.2807 62.8167 81.7987H27.6446V78.2129ZM66.3899 82.005C66.3412 81.9701 66.2894 81.9395 66.2351 81.9127C64.3436 80.7405 63.0808 78.6465 63.0808 76.2617C63.0808 73.2446 65.1016 70.6933 67.8606 69.8854C67.9324 69.8724 68.0027 69.8525 68.0706 69.8258C68.5997 69.6898 69.1541 69.6173 69.7251 69.6173C73.3894 69.6173 76.3694 72.5972 76.3694 76.2616C76.3694 77.9499 75.7357 79.4918 74.6951 80.6651C74.6747 80.6843 74.6543 80.7034 74.6351 80.7244C74.6159 80.7456 74.5988 80.7677 74.5815 80.7899C73.3679 82.0906 71.6405 82.906 69.7249 82.906C68.5098 82.906 67.3709 82.5768 66.3899 82.005Z" fill="#404040"/>
</g>
<defs>
<clipPath id="clip0">
<path d="M21 22H87.443V88.443H21V22Z" fill="white"/>
</clipPath>
</defs>
</svg>
